[img]http://img255.imageshack.us/img255/8492/residentevilretributionjm.jpg[/img]

[b][size=200][color=black]PLOT[/color][/size][/b]

[code]Alice fights alongside a resistance movement in the continuing 
battle against the Umbrella Corporation and the undead. [/code]

[b][size=200][color=black]IMDB[/color][/size][/b]

[code]http://www.imdb.com/title/tt1855325/[/code]

[b][size=200][color=black]MOVIE INFO[/color][/size][/b]

[code]Resident Evil Retribution [2012] R5 DVDRip x264 AAC-V3nom

Format : MPEG-4
Format profile : Base Media / Version 2
Codec ID : mp42
File size : 346 MiB
Duration : 1h 31mn
Overall bit rate mode : Variable
Overall bit rate : 528 Kbps
Encoded date : UTC 2012-11-29 19:24:06
Tagged date : UTC 2012-11-29 19:51:16

Video
ID : 1
Format : AVC
Format/Info : Advanced Video Codec
Format profile : Main@L2.1
Format settings, CABAC : Yes
Format settings, ReFrames : 4 frames
Codec ID : avc1
Codec ID/Info : Advanced Video Coding
Duration : 1h 31mn
Bit rate mode : Variable
Bit rate : 402 Kbps
Width : 640 pixels
Height : 272 pixels
Display aspect ratio : 2.35:1
Frame rate mode : Variable
Frame rate : 25.000 fps
Minimum frame rate : 12.500 fps
Maximum frame rate : 125.174 fps
Color space : YUV
Chroma subsampling : 4:2:0
Bit depth : 8 bits
Scan type : Progressive
Bits/(Pixel*Frame) : 0.092
Stream size : 260 MiB (75%)
Writing library : x264 core 112

Audio
ID : 2
Format : AAC
Format/Info : Advanced Audio Codec
Format profile : LC
Codec ID : 40
Duration : 1h 31mn
Bit rate mode : Variable
Bit rate : 128 Kbps
Maximum bit rate : 236 Kbps
Channel(s) : 2 channels
Channel positions : Front: L R
Sampling rate : 48.0 KHz
Compression mode : Lossy
Delay relative to video : 40ms
Stream size : 83.9 MiB (24%)
Encoded date : UTC 2012-11-29 19:24:06
Tagged date : UTC 2012-11-29 19:51:13[/code]

[b][size=200][color=black]SOURCE[/color][/size][/b]

[code]Resident.Evil.Retribution.2012.R5.DVDRip.AC3.5.1.XviD-RESiSTANCE (Thanks)[/code]

[b][size=200][color=black]SCREENSHOTS[/color][/size][/b]

[img]http://img254.imageshack.us/img254/1580/residentevilretributiony.jpg[/img]

[img]http://kastatic.com/i2/users/133df62bbf28e62494bb17fe11078f1a.gif[/img][img]http://kastatic.com/i2/users/133df62bbf28e62494bb17fe11078f1a.gif[/img]